HIERARCHY
ROOT Hips
{
 OFFSET 0.000000 0.000000 0.000000
 CHANNELS 6 Xposition Yposition Zposition Yrotation Xrotation Zrotation
 JOINT Chest
 {
  OFFSET 0.000000 9.581000 -0.001100
  CHANNELS 3 Yrotation Xrotation Zrotation
  JOINT Chest2
  {
   OFFSET 0.000000 9.561100 0.002200
   CHANNELS 3 Yrotation Xrotation Zrotation
   JOINT Chest3
   {
    OFFSET 0.000000 9.521100 0.000000
    CHANNELS 3 Yrotation Xrotation Zrotation
    JOINT Chest4
    {
     OFFSET 0.000000 9.511400 0.000000
     CHANNELS 3 Yrotation Xrotation Zrotation
     JOINT Neck
     {
      OFFSET 0.000000 14.375100 0.000000
      CHANNELS 3 Yrotation Xrotation Zrotation
      JOINT Head
      {
       OFFSET 0.000000 8.901200 0.004600
       CHANNELS 3 Yrotation Xrotation Zrotation
       End Site
       {
        OFFSET 0.000000 16.962200 0.002400
       }
      }
     }
     JOINT RightCollar
     {
      OFFSET -2.920100 9.518800 0.000000
      CHANNELS 3 Yrotation Xrotation Zrotation
      JOINT RightShoulder
      {
       OFFSET -13.664500 0.000000 0.000000
       CHANNELS 3 Yrotation Xrotation Zrotation
       JOINT RightElbow
       {
        OFFSET 0.000000 -29.999200 0.000000
        CHANNELS 3 Yrotation Xrotation Zrotation
        JOINT RightWrist
        {
         OFFSET 0.000000 -24.253600 0.000000
         CHANNELS 3 Yrotation Xrotation Zrotation
         End Site
         {
          OFFSET 0.000000 -17.918900 0.000000
         }
        }
       }
      }
     }
     JOINT LeftCollar
     {
      OFFSET 2.920100 9.518800 0.000000
      CHANNELS 3 Yrotation Xrotation Zrotation
      JOINT LeftShoulder
      {
       OFFSET 13.664500 0.000000 0.000000
       CHANNELS 3 Yrotation Xrotation Zrotation
       JOINT LeftElbow
       {
        OFFSET 0.000000 -29.999200 0.000000
        CHANNELS 3 Yrotation Xrotation Zrotation
        JOINT LeftWrist
        {
         OFFSET 0.000000 -24.253600 0.000000
         CHANNELS 3 Yrotation Xrotation Zrotation
         End Site
         {
          OFFSET 0.000000 -17.918900 0.000000
         }
        }
       }
      }
     }
    }
   }
  }
 }
 JOINT RightHip
 {
  OFFSET -7.797300 0.005300 0.000500
  CHANNELS 3 Yrotation Xrotation Zrotation
  JOINT RightKnee
  {
   OFFSET 0.000000 -40.663400 -0.000500
   CHANNELS 3 Yrotation Xrotation Zrotation
   JOINT RightAnkle
   {
    OFFSET 0.000000 -39.523700 -0.000900
    CHANNELS 3 Yrotation Xrotation Zrotation
    JOINT RightToe
    {
     OFFSET 0.000000 -6.418000 14.485300
     CHANNELS 3 Yrotation Xrotation Zrotation
     End Site
     {
      OFFSET 0.000000 -1.465200 6.326400
     }
    }
   }
  }
 }
 JOINT LeftHip
 {
  OFFSET 7.797300 0.005300 0.000500
  CHANNELS 3 Yrotation Xrotation Zrotation
  JOINT LeftKnee
  {
   OFFSET 0.000000 -40.663400 -0.000500
   CHANNELS 3 Yrotation Xrotation Zrotation
   JOINT LeftAnkle
   {
    OFFSET 0.000000 -39.523700 -0.000900
    CHANNELS 3 Yrotation Xrotation Zrotation
    JOINT LeftToe
    {
     OFFSET 0.000000 -6.418000 14.485300
     CHANNELS 3 Yrotation Xrotation Zrotation
     End Site
     {
      OFFSET 0.000000 -1.465200 6.326400
     }
    }
   }
  }
 }
}
MOTION
Frames: 11
Frame Time: 0.008333
-15.268791 126.886226 15.801276 176.183344 -47.707155 -6.076013 3.010230 27.103141 3.824936 0.388587 4.753757 0.544474 0.625653 7.510796 0.883812 2.247079 22.073501 2.958920 5.962576 14.891088 -1.643563 6.815773 -9.916161 -3.162400 1.866703 2.454457 3.114047 1.686052 -11.074722 -11.057627 -98.124772 -60.745807 145.431324 2.086392 3.055796 2.855250 -10.710039 -0.759734 -0.995692 -6.927585 -12.811353 11.478450 63.233550 -56.356533 -108.317502 -1.501439 -5.636437 -8.691651 -17.868433 -10.019940 4.176166 6.912476 76.002831 22.470565 23.930328 -19.517329 16.221746 -0.000938 -0.005787 -0.000416 9.577284 -17.813895 -4.302168 7.591180 66.977159 -5.046355 5.357905 -4.326200 14.977530 -0.002103 -0.000747 -0.000932
-15.267934 126.886190 15.801903 176.174413 -47.707079 -6.066788 3.006269 27.100371 3.821829 0.379068 4.749528 0.548077 0.621763 7.508641 0.883450 2.255277 22.080637 2.949932 5.867812 14.734548 -1.640677 6.719866 -10.077064 -3.152316 1.855094 2.449157 3.109614 1.637395 -11.112650 -11.051842 -97.665847 -60.583777 145.119052 1.914317 3.034122 2.803845 -10.727432 -0.776702 -0.989107 -7.020888 -12.746700 11.547222 62.885825 -56.126074 -108.270129 -1.228825 -5.943055 -8.279239 -17.866557 -10.019179 4.172772 6.938290 76.005610 22.492077 23.944137 -19.515311 16.224250 0.003342 -0.002081 0.001481 9.592358 -17.795806 -4.297326 7.710566 66.987435 -4.916201 5.270407 -4.430597 14.880012 -0.004565 -0.005816 -0.002022
-15.267823 126.886458 15.802036 176.164216 -47.709695 -6.051184 2.983691 27.094648 3.818098 0.383515 4.752673 0.539910 0.613912 7.501190 0.891120 2.251405 22.084869 2.940242 5.791546 14.589964 -1.653718 6.630003 -10.237210 -3.143723 1.851236 2.452973 3.091700 1.557542 -11.166801 -11.037073 -97.316491 -60.482306 144.901087 1.828840 3.054852 2.817706 -10.730520 -0.802467 -0.963312 -7.073504 -12.686133 11.570114 62.592455 -55.942095 -108.246605 -1.002848 -6.263123 -7.816697 -17.861517 -10.015116 4.167397 6.938500 76.009263 22.486419 23.930913 -19.534858 16.228084 0.000701 -0.004339 0.000311 9.642446 -17.777097 -4.301404 7.681093 66.993067 -4.912013 5.238863 -4.483760 14.845390 -0.005590 -0.003427 -0.002477
-15.266695 126.887094 15.801985 176.154585 -47.714414 -6.041252 2.986770 27.097503 3.816757 0.376611 4.747448 0.548347 0.613980 7.499734 0.890196 2.245606 22.083538 2.942847 5.715838 14.448571 -1.670443 6.545783 -10.394243 -3.135340 1.817301 2.444993 3.067726 1.478896 -11.221903 -11.010352 -97.115161 -60.413915 144.796873 1.840610 3.134525 2.923110 -10.722957 -0.814419 -0.952933 -7.129499 -12.648291 11.604230 62.357695 -55.802159 -108.239840 -0.837071 -6.584299 -7.343936 -17.859221 -10.004993 4.169565 6.936822 76.010265 22.475892 23.915699 -19.554643 16.232232 -0.001270 -0.005549 -0.000563 9.689978 -17.761134 -4.303047 7.994598 67.023793 -4.584320 5.076340 -4.549215 14.801956 -0.003554 -0.000190 -0.001574
-15.265040 126.887053 15.802611 176.153618 -47.712488 -6.040419 2.981129 27.093040 3.819155 0.376008 4.746264 0.548686 0.617017 7.499879 0.888896 2.239976 22.079568 2.946199 5.648802 14.311661 -1.683526 6.465507 -10.546924 -3.126908 1.773356 2.436633 3.047939 1.399738 -11.284338 -10.977615 -97.062625 -60.381790 144.806076 1.931496 3.272842 3.118092 -10.715537 -0.821769 -0.940697 -7.166762 -12.624742 11.625767 62.160081 -55.712387 -108.225984 -0.731290 -6.876774 -6.911617 -17.870614 -9.995941 4.182793 6.910239 76.008220 22.434948 23.889272 -19.581653 16.236414 -0.004928 -0.007380 -0.002183 9.730292 -17.730094 -4.297301 8.167715 67.027589 -4.385521 4.946354 -4.693247 14.677086 -0.003214 -0.005275 -0.001424
-15.264188 126.886968 15.803052 176.148977 -47.710928 -6.031321 2.980327 27.088838 3.822944 0.380678 4.745316 0.553009 0.610065 7.502302 0.875893 2.259383 22.072846 2.960193 5.569234 14.181354 -1.696997 6.388138 -10.694107 -3.119522 1.709910 2.430306 3.019310 1.310943 -11.348717 -10.934542 -97.116027 -60.411260 144.904959 2.064759 3.439594 3.373957 -10.733275 -0.820770 -0.941800 -7.177796 -12.617873 11.632557 61.977402 -55.679969 -108.182482 -0.674954 -7.112623 -6.563668 -17.869433 -9.996631 4.183233 6.910883 76.012619 22.433056 23.876704 -19.594732 16.234235 -0.007024 -0.011413 -0.003112 9.778944 -17.705923 -4.300295 8.180104 67.027557 -4.336504 4.890734 -4.791029 14.590851 -0.003934 -0.007048 -0.001743
-15.264909 126.887131 15.802922 176.136887 -47.712743 -6.006600 2.982530 27.091217 3.810199 0.382610 4.744517 0.553444 0.612865 7.502910 0.879610 2.267286 22.069835 2.963107 5.500978 14.052810 -1.708067 6.315704 -10.833141 -3.115193 1.641277 2.423471 2.992993 1.230436 -11.410638 -10.897261 -97.244980 -60.462767 145.066063 2.224813 3.647664 3.676210 -10.741363 -0.838417 -0.917232 -7.213732 -12.586309 11.660484 61.910800 -55.649012 -108.177108 -0.652826 -7.278305 -6.324323 -17.860967 -10.000675 4.169873 6.938844 76.018694 22.458156 23.892235 -19.589684 16.225918 -0.004431 -0.008491 -0.001963 9.876609 -17.670460 -4.317098 8.260025 67.029812 -4.199539 4.776821 -4.871422 14.528592 -0.001228 -0.002433 -0.000544
-15.264320 126.887170 15.803173 176.133094 -47.712475 -5.995866 2.996579 27.087340 3.829093 0.372247 4.746689 0.537554 0.626624 7.499366 0.892920 2.258032 22.070508 2.960063 5.438896 13.932493 -1.721344 6.250757 -10.962816 -3.114778 1.549574 2.396265 2.952997 1.179763 -11.440781 -10.859267 -97.420731 -60.520638 145.265101 2.388329 3.881583 3.996992 -10.730544 -0.875601 -0.859906 -7.277332 -12.513638 11.698265 61.976002 -55.612354 -108.244283 -0.647539 -7.364356 -6.200804 -17.863333 -10.004294 4.164420 6.954301 76.020343 22.470617 23.920875 -19.570015 16.215197 -0.001951 -0.006625 -0.000864 9.922316 -17.651597 -4.319840 8.347353 67.039447 -4.087249 4.687973 -4.941841 14.465000 -0.001520 -0.002338 -0.000673
-15.263454 126.886949 15.803744 176.130278 -47.710204 -5.987839 3.000431 27.083387 3.835970 0.372600 4.745891 0.537410 0.621189 7.501036 0.884974 2.269072 22.066311 2.973137 5.383368 13.820318 -1.735702 6.193429 -11.083446 -3.117154 1.519884 2.392222 2.937345 1.090417 -11.484968 -10.853441 -97.619721 -60.576828 145.482958 2.544828 4.119456 4.306829 -10.734736 -0.882241 -0.855623 -7.296225 -12.478982 11.727615 62.000985 -55.632076 -108.262588 -0.651355 -7.370297 -6.188720 -17.865388 -10.009785 4.164683 6.975472 76.023854 22.492482 23.931192 -19.557618 16.200261 0.000018 -0.007720 0.000008 9.966052 -17.635089 -4.320016 8.301881 67.040955 -4.100788 4.656325 -5.004549 14.404951 -0.002117 -0.002432 -0.000938
-15.262888 126.887087 15.803961 176.127276 -47.711576 -5.978232 3.003658 27.081983 3.840413 0.377529 4.743442 0.548240 0.616481 7.503711 0.878433 2.268542 22.061189 2.975930 5.333600 13.716608 -1.750187 6.142590 -11.194756 -3.121126 1.491943 2.390291 2.921403 1.017871 -11.518227 -10.853165 -97.819930 -60.626270 145.700977 2.689571 4.341520 4.589139 -10.736081 -0.886805 -0.854605 -7.298464 -12.444153 11.748552 62.048211 -55.657503 -108.289908 -0.665034 -7.313598 -6.264102 -17.867510 -10.010612 4.162943 7.089760 76.024699 22.606935 23.906026 -19.559553 16.177372 0.001737 -0.010894 0.000769 10.008906 -17.621890 -4.320042 8.479689 67.061258 -3.915722 4.544558 -5.049223 14.378966 -0.001426 -0.000370 -0.000632
-15.261951 126.886806 15.804691 176.127670 -47.709773 -5.974206 3.004375 27.076593 3.844782 0.380449 4.739231 0.553971 0.621457 7.496129 0.888916 2.252560 22.072118 2.961655 5.295821 13.613779 -1.759370 6.097419 -11.296329 -3.125811 1.467112 2.374480 2.910054 0.968123 -11.532875 -10.858102 -98.005034 -60.666497 145.903093 2.818198 4.533609 4.832497 -10.730060 -0.903952 -0.834699 -7.288390 -12.406714 11.740606 62.105540 -55.688957 -108.312933 -0.689667 -7.221009 -6.394031 -17.872278 -10.009654 4.168596 7.117011 76.021411 22.630947 23.906009 -19.555061 16.162829 0.000941 -0.010044 0.000417 10.044304 -17.605688 -4.316570 8.578100 67.070856 -3.799637 4.458977 -5.119225 14.303040 -0.001069 -0.000903 -0.000474
